<?xml version="1.0" encoding="UTF-8"?>
<svg id="Layer_1" xmlns="http://www.w3.org/2000/svg" version="1.1" xmlns:xlink="http://www.w3.org/1999/xlink" viewBox="0 0 720 260">
  <!-- Generator: Adobe Illustrator 30.1.0, SVG Export Plug-In . SVG Version: 2.1.1 Build 136)  -->
  <defs>
    <style>
      .st0 {
        fill: #0e7490;
      }

      .st1, .st2, .st3, .st4, .st5, .st6, .st7, .st8, .st9, .st10, .st11, .st12 {
        stroke: #f97316;
        stroke-linejoin: round;
      }

      .st1, .st2, .st3, .st4, .st6, .st7, .st8, .st9, .st10, .st11, .st12 {
        fill: #f97316;
      }

      .st1, .st5 {
        stroke-width: .55px;
      }

      .st2 {
        stroke-width: .55px;
      }

      .st3 {
        stroke-width: .55px;
      }

      .st13 {
        fill: #334155;
      }

      .st4 {
        stroke-width: .55px;
      }

      .st5 {
        fill: url(#linear-gradient);
      }

      .st14 {
        isolation: isolate;
      }

      .st6 {
        stroke-width: .55px;
      }

      .st7 {
        stroke-width: .55px;
      }

      .st8 {
        stroke-width: .55px;
      }

      .st9 {
        stroke-width: .55px;
      }

      .st10 {
        stroke-width: .55px;
      }

      .st11 {
        stroke-width: .55px;
      }

      .st12 {
        stroke-width: .55px;
      }
    </style>
    <linearGradient id="linear-gradient" x1="242.05" y1="-128.64" x2="242.05" y2="-209.2" gradientTransform="translate(0 -36) scale(1 -1)" gradientUnits="userSpaceOnUse">
      <stop offset="0" stop-color="#0e7490" stop-opacity=".95"/>
      <stop offset=".6" stop-color="#06b6d4" stop-opacity=".55"/>
      <stop offset="1" stop-color="#06b6d4" stop-opacity=".1"/>
    </linearGradient>
  </defs>
  <g class="st14">
    <g class="st14">
      <g class="st14">
        <g class="st14">
          <path class="st13" d="M205.41,178.42h2.42l3.59,10.39,3.59-10.39h2.42v13.36h-1.8v-10.23l-3.59,10.23h-1.25l-3.59-10.23v10.23h-1.8v-13.36Z"/>
          <path class="st13" d="M224.49,179.9c1.09-1.09,2.42-1.64,3.98-1.64s2.89.55,3.98,1.64c1.25,1.25,1.88,2.97,1.88,5.16s-.62,3.91-1.88,5.16c-1.09,1.09-2.42,1.64-3.98,1.64s-2.89-.55-3.98-1.64c-1.25-1.25-1.88-2.97-1.88-5.16s.62-3.91,1.88-5.16ZM225.82,180.92c-.89.89-1.33,2.27-1.33,4.14s.44,3.26,1.33,4.14c.78.78,1.67,1.17,2.66,1.17s1.88-.39,2.66-1.17c.88-.88,1.33-2.27,1.33-4.14s-.44-3.25-1.33-4.14c-.78-.78-1.67-1.17-2.66-1.17s-1.88.39-2.66,1.17Z"/>
          <path class="st13" d="M239.59,178.42h1.95l6.25,10.55v-10.55h1.8v13.36h-1.95l-6.25-10.55v10.55h-1.8v-13.36Z"/>
          <path class="st13" d="M254.14,178.42h10.7v1.48h-4.45v11.88h-1.8v-11.88h-4.45v-1.48Z"/>
          <path class="st13" d="M269.32,178.42h8.59v1.48h-6.8v4.14h6.33v1.48h-6.33v4.77h7.19v1.48h-8.98v-13.36Z"/>
          <path class="st13" d="M302.36,179.74c.99-.99,2.27-1.48,3.83-1.48s2.79.44,3.67,1.33c.94.94,1.43,2.14,1.48,3.59h-1.88c-.1-1.09-.44-1.93-1.02-2.5-.62-.62-1.38-.94-2.27-.94-.94,0-1.77.37-2.5,1.09-.94.94-1.41,2.37-1.41,4.3s.47,3.36,1.41,4.3c.68.68,1.51,1.02,2.5,1.02,1.04,0,1.85-.29,2.42-.86.73-.73,1.09-1.77,1.09-3.12h1.88c-.05,1.77-.57,3.15-1.56,4.14-.89.89-2.16,1.33-3.83,1.33-1.56,0-2.84-.49-3.83-1.48-1.3-1.3-1.95-3.07-1.95-5.31s.65-4.09,1.95-5.39Z"/>
          <path class="st13" d="M315.42,191.78l5.31-13.52h1.56l5.31,13.52h-1.88l-1.64-4.06h-5.16l-1.64,4.06h-1.88ZM321.52,180.84l-2.03,5.39h4.06l-2.03-5.39Z"/>
          <path class="st13" d="M332.09,178.34h6.56c1.04,0,1.9.34,2.58,1.02.68.68,1.02,1.62,1.02,2.81s-.34,2.14-1.02,2.81c-.37.37-.89.6-1.56.7l3.05,6.02h-1.95l-2.81-5.78h-4.06v5.78h-1.8v-13.36ZM333.88,179.82v4.61h4.61c.52,0,.96-.18,1.33-.55.36-.36.55-.94.55-1.72,0-.73-.21-1.3-.62-1.72-.42-.42-.91-.62-1.48-.62h-4.38Z"/>
          <path class="st13" d="M347.11,178.42h1.8v11.88h7.19v1.48h-8.98v-13.36Z"/>
          <path class="st13" d="M361.97,179.9c1.09-1.09,2.42-1.64,3.98-1.64s2.89.55,3.98,1.64c1.25,1.25,1.88,2.97,1.88,5.16s-.62,3.91-1.88,5.16c-1.09,1.09-2.42,1.64-3.98,1.64s-2.89-.55-3.98-1.64c-1.25-1.25-1.88-2.97-1.88-5.16s.62-3.91,1.88-5.16ZM363.3,180.92c-.89.89-1.33,2.27-1.33,4.14s.44,3.26,1.33,4.14c.78.78,1.67,1.17,2.66,1.17s1.88-.39,2.66-1.17c.88-.88,1.33-2.27,1.33-4.14s-.44-3.25-1.33-4.14c-.78-.78-1.67-1.17-2.66-1.17s-1.88.39-2.66,1.17Z"/>
          <path class="st13" d="M394.15,183.96h1.8v1.72h-1.8v-1.72Z"/>
          <path class="st13" d="M417.81,178.42h3.52v1.72h-.86v9.92h.86v1.72h-3.52v-1.72h.86v-9.92h-.86v-1.72Z"/>
          <path class="st13" d="M426.03,178.42h1.95l6.25,10.55v-10.55h1.8v13.36h-1.95l-6.25-10.55v10.55h-1.8v-13.36Z"/>
          <path class="st13" d="M458.99,178.42h8.98v1.48h-7.19v4.38h5.62v1.48h-5.62v6.02h-1.8v-13.36Z"/>
          <path class="st13" d="M472.61,178.42h1.8v11.88h7.19v1.48h-8.98v-13.36Z"/>
          <path class="st13" d="M487.47,179.9c1.09-1.09,2.42-1.64,3.98-1.64s2.89.55,3.98,1.64c1.25,1.25,1.88,2.97,1.88,5.16s-.62,3.91-1.88,5.16c-1.09,1.09-2.42,1.64-3.98,1.64s-2.89-.55-3.98-1.64c-1.25-1.25-1.88-2.97-1.88-5.16s.62-3.91,1.88-5.16ZM488.8,180.92c-.89.89-1.33,2.27-1.33,4.14s.44,3.26,1.33,4.14c.78.78,1.67,1.17,2.66,1.17s1.88-.39,2.66-1.17c.88-.88,1.33-2.27,1.33-4.14s-.44-3.25-1.33-4.14c-.78-.78-1.67-1.17-2.66-1.17s-1.88.39-2.66,1.17Z"/>
          <path class="st13" d="M501.32,178.42h1.72l2.11,9.92,2.58-9.92h1.72l2.58,9.92,2.11-9.92h1.72l-2.97,13.52h-1.56l-2.73-10.86-2.73,10.86h-1.56l-2.97-13.52Z"/>
        </g>
      </g>
    </g>
  </g>
  <g>
    <g class="st14">
      <g class="st14">
        <g class="st14">
          <g class="st14">
            <path class="st0" d="M301.15,155.08v-32.67h8.17v32.67h-8.17ZM309.32,122.41v-8.17h24.5v8.17h-24.5ZM309.32,155.08h24.5v8.17h-24.5v-8.17ZM333.82,122.41h8.17v8.17h-8.17v-8.17ZM333.82,155.08v-8.17h8.17v8.17h-8.17Z"/>
            <path class="st0" d="M350.15,122.41v-8.17h16.33v-16.33h8.17v16.33h16.33v8.17h-16.33v40.83h-8.17v-40.83h-16.33ZM374.65,97.91v-8.17h16.33v8.17h-16.33Z"/>
            <path class="st0" d="M399.15,97.91v-8.17h16.33v65.33h8.17v8.17h-16.33v-65.33h-8.17Z"/>
            <path class="st0" d="M431.82,155.08v-32.67h8.17v32.67h-8.17ZM464.48,114.25v8.17h-24.5v-8.17h24.5ZM464.48,155.08v8.17h-24.5v-8.17h24.5ZM464.48,122.41h8.17v32.67h-8.17v-32.67Z"/>
            <path class="st0" d="M480.82,146.91v-32.67h8.17v32.67h-8.17ZM488.98,146.91h8.17v16.33h-8.17v-16.33ZM497.15,146.91v-32.67h8.17v32.67h-8.17ZM505.32,146.91h8.17v16.33h-8.17v-16.33ZM513.48,146.91v-32.67h8.17v32.67h-8.17Z"/>
          </g>
        </g>
      </g>
    </g>
    <g>
      <g>
        <path class="st1" d="M290.26,157.14c-1.2-2.95-1.9-6-2.26-9.18-.33-2.87-.44-5.65-.36-8.54l.29-9.35c.21-6.99.52-13.79-.86-20.66-1.01-5.04-3.12-10.17-6.92-13.72-3.16-2.96-7.24-4.74-11.63-4.67-5.1.08-9.71,2.7-12.63,6.82-2.9,4.1-4.67,10.95-5.66,15.88l-1.88,9.33c-.6,3-1.2,5.87-1.96,8.82-.38,1.46-2.65,10.37-5.17,8.78-.52-.33-.95-.88-1.25-1.43-2.01-3.77-3.32-10.81-4.22-15.15l-2.65-12.75c-.6-2.86-1.44-5.55-2.51-8.25-1.73-4.36-4.47-8.33-8.78-10.4-5.2-2.5-11.38-2.09-16.51.38-3.4,1.64-6.13,4.18-8.04,7.42-1.32,2.24-2.26,4.55-2.92,7.08-1.19,4.58-1.89,9.18-1.92,13.93l-.06,8.03-.04,6.82c0,1.3-.38,2.47-.86,3.64-1.94,4.76-1.74,9.99,1.16,14.31,1.92,2.84,1.51,4.49,2.54,6.58.64,1.28,1.75,2.12,3.21,2.27.16,1.19-.07,2.26-.46,3.33-.37,1.02-.65,2.05-.94,3.12,0,.17.03.33.08.09l2.01-3.18c.71,1.29,1.32,2.28,2.18,3.24-.69-2.29-1.6-4.24-1.42-6.59,1.63-.23,2.78-1.24,3.38-2.68.89-2.14.62-3.58,2.2-5.94.75-1.12,1.4-2.25,1.82-3.55,1.23-3.79.91-7.8-.67-11.44-1.06-2.45-.98-6.49-.95-9.23.04-4.47.15-8.85.65-13.3.22-1.97.61-3.82,1.28-5.66.93-2.55,2.72-4.59,5.6-4.71,3.02-.12,4.78,2.61,5.73,5.13.55,1.46.99,2.91,1.26,4.47l1.44,8.35c1.33,7.75,2.68,15.54,5.76,22.82,1.83,4.32,4.72,8.57,9.14,10.48,3.71,1.6,7.84,1.32,11.31-.74,2.31-1.37,4.13-3.21,5.61-5.45,2.66-4.04,4.17-8.8,5.32-13.48.73-2.96,1.33-5.79,1.87-8.85l1.61-9.23c.4-2.3.89-4.48,1.54-6.71.59-2.01,1.6-4.41,3.35-5.62,1.55-1.07,3.54-.88,4.85.49,2.22,2.31,2.82,6.56,2.98,9.68.12,2.33.15,4.57.01,6.92l-.61,10.55c-.24,4.19-.34,8.26-.16,12.44.16,3.84.65,7.52,1.66,11.21.92,3.35,2.31,6.44,4.43,9.18,1.65,2.12,3.56,3.87,5.88,5.19,1.96,1.11,5.44,2.45,6.78-.2.71-1.4.91-2.91.97-4.49.17-5.17-1.85-7.3-3.62-11.65l.02.02h0ZM291.59,172.34c-.25.59-.74.92-1.41.83-2.54-.34-5.15-2.13-6.93-3.93-3.3-3.34-5.04-7.23-6.21-11.79l.98-.31c.06-.02.15-.19.12-.25-.03-.07-.16-.24-.23-.22l-.96.24c-.68-2.96-1.1-5.89-1.18-8.92l-.11-4.52.09-3.43c.25-.4.55.02,1.1-.3.08-.05-.1-.33-.16-.39l-.93-.05.25-5.28.5-9.04c.17-3.1.16-6.16-.13-9.25.18-.41,1-.13,1.02-.49,0-.11-.13-.31-.24-.29-.23.04-.58.06-.91.02-.38-3.15-1.62-7.23-4.5-8.89l.67-.89c.08-.11-.18-.39-.34-.37l-.82.99c-2.16-.8-4.48-.27-6.05,1.49-.45.19-.99-.54-1.22-.35-.09.07-.15.36-.06.41l.77.44c-1.58,2.17-2.45,4.72-3.06,7.27-.76,3.21-1.29,6.33-1.83,9.61l-.89-.15-.23.42,1.01.35c-1.21,6.66-2.32,13.26-4.7,19.59-.48.08-.77-.53-1.14-.35-.08.04-.13.33-.05.38l.95.59c-1.59,4.04-3.86,7.77-7.54,10.08-3.84,2.41-8.66,2.19-12.29-.52-3-2.24-4.91-5.54-6.36-8.98l1.02-.58c.11-.06-.08-.48-.19-.43l-1.05.5c-2.52-6.48-3.83-13.23-4.98-20.06l1.02-.31c.13-.04.06-.47-.06-.46l-1.06.16-1.38-8.11c-.44-2.59-1.46-6.02-2.77-8.32l.91-.56c.13-.08-.11-.49-.23-.42l-1.02.55c-2.25-3.22-5.94-4.03-9.29-1.97l-.77-.94c-.09.04-.3.18-.39.24l.72,1.03c-3.26,2.55-4.02,7.67-4.5,11.56l-.98-.09-.12.58c.29-.07.85-.05,1.04.22-.39,5.43-.55,10.76-.4,16.17v.52c0,.29-.98-.12-.94.32.02.23.14.3.35.31l.7.06c.07,1.61.44,3.02,1.05,4.47,1.69,3.98,1.6,8.9-.84,12.58-.95,1.42-1.6,2.91-2,4.58-.45,1.93-.9,3.87-3.3,3.88-2.55,0-2.91-2.17-3.39-4.2-.88-3.66-2.7-4.4-3.54-7.89-.73-3.01-.42-6.05.73-8.9.6-1.48.92-2.9.99-4.52l.74-.05c.14,0,.34-.1.34-.21,0-.22-.14-.31-.34-.32l-.7-.05-.03-8.81c0-3.13.07-6.13.33-9.27.4-.07.81,0,1.1.11l.15-.57-1.18-.15c.71-6.84,2.28-14.54,7.51-19.4l.76.87.48-.32c-.34-.3-.55-.52-.8-.93,7.08-6.04,18.99-6.21,24.48,2.17.7,1.07,1.26,2.11,1.82,3.26l-.77.39c-.14.07-.27.25-.21.39.07.16.28.18.42.11l.78-.42c1.12,2.66,1.91,5.27,2.59,8.06.94,3.88,1.71,7.69,2.45,11.66-.28.21-.7.27-1.01.23v.59l1.14-.18c.82,4.14,1.64,8.1,2.81,12.09.49,1.68,1.05,3.16,1.83,4.74-.28.39-.86.37-.93.69-.02.11.2.36.3.3l.93-.49c.47.57.84,1.04,1.38,1.41,1.05.72,2.39.61,3.36-.19.55-.46.94-1,1.38-1.65.51,0,.5.38,1.04.4.1,0,.2-.32.12-.37l-.8-.54c.8-1.7,1.43-3.31,1.95-5.11,1.12-3.88,1.96-7.73,2.72-11.72l.87.16c.13.02.36-.39.34-.41l-1.09-.3,1.21-6.11c.89-4.47,1.94-9.16,3.68-13.39l.92.45.38-.43c-.41-.16-.69-.28-1.07-.54.87-1.89,1.85-3.6,3.29-5.11,3.93-4.17,9.84-5.57,15.25-3.51,1.93.73,3.57,1.8,5.13,3.23l-.83.98.42.29.81-.88c4.3,4.19,6.16,10.64,6.76,16.43l-1.02.2.05.33c0,.07.22.09.29.08l.75-.07c.48,4.81.35,9.52.2,14.33l-.34,10.79-.84.04c-.1,0-.26.14-.25.22.02.15.15.29.28.3l.82.06c-.02,4.91.18,9,1.36,13.81l-.95.35c-.13.05.03.48.18.45l.93-.22c.69,2.4,1.59,4.53,2.69,6.71.59,1.16,1.14,2.29,1.52,3.55.71,2.36.77,5.46-.2,7.76h0Z"/>
        <path class="st5" d="M291.79,164.59c-.38-1.26-.93-2.38-1.52-3.55-1.1-2.18-2-4.31-2.69-6.71l-.93.22c-.15.04-.31-.4-.18-.45l.95-.35c-1.18-4.81-1.38-8.9-1.36-13.81l-.82-.06c-.13,0-.26-.15-.28-.3,0-.09.15-.22.25-.22l.84-.04.34-10.79c.15-4.8.27-9.52-.2-14.33l-.75.07c-.08,0-.28,0-.29-.08l-.05-.33,1.02-.2c-.6-5.79-2.46-12.25-6.76-16.43l-.81.88-.42-.29.83-.98c-1.56-1.42-3.2-2.49-5.13-3.23-5.41-2.05-11.31-.65-15.25,3.51-1.43,1.51-2.42,3.22-3.29,5.11.38.26.65.38,1.07.54l-.38.43-.92-.45c-1.73,4.23-2.79,8.93-3.68,13.39l-1.21,6.11,1.09.3s-.21.43-.34.41l-.87-.16c-.76,4-1.6,7.85-2.72,11.72-.52,1.8-1.15,3.41-1.95,5.11l.8.54c.08.06-.02.38-.12.37-.54-.02-.53-.4-1.04-.4-.44.66-.82,1.2-1.38,1.65-.97.8-2.31.91-3.36.19-.55-.37-.91-.85-1.38-1.41l-.93.49c-.1.05-.32-.19-.3-.3.06-.32.64-.3.93-.69-.79-1.57-1.34-3.06-1.83-4.74-1.16-3.99-1.98-7.95-2.81-12.09l-1.15.18v-.59c.31.03.73-.02,1.01-.23-.74-3.96-1.51-7.78-2.45-11.66-.68-2.8-1.47-5.41-2.59-8.06l-.78.42c-.14.07-.35.05-.42-.11-.07-.15.06-.32.21-.39l.77-.39c-.56-1.15-1.12-2.19-1.82-3.26-5.49-8.38-17.4-8.2-24.48-2.17.26.41.46.63.8.93l-.48.32-.76-.87c-5.24,4.85-6.8,12.55-7.51,19.4l1.18.15-.15.57c-.29-.11-.7-.18-1.1-.11-.26,3.14-.34,6.14-.33,9.27l.03,8.81.7.05c.19,0,.34.1.34.32,0,.11-.2.2-.34.21l-.74.05c-.07,1.62-.39,3.04-.99,4.52-1.16,2.85-1.46,5.89-.73,8.9.84,3.49,2.66,4.23,3.54,7.89.49,2.03.85,4.21,3.39,4.2,2.4,0,2.84-1.94,3.3-3.88.39-1.67,1.05-3.16,2-4.58,2.44-3.68,2.53-8.61.84-12.58-.62-1.45-.99-2.86-1.05-4.47l-.7-.06c-.21-.02-.33-.08-.35-.31-.04-.44.93-.03.94-.32v-.52c-.15-5.41,0-10.74.4-16.17-.19-.27-.75-.3-1.04-.22l.12-.58.98.09c.47-3.89,1.24-9.01,4.5-11.56l-.72-1.03c.09-.06.3-.2.39-.24l.77.94c3.34-2.06,7.03-1.25,9.29,1.97l1.02-.55c.12-.07.36.34.23.42l-.91.56c1.31,2.3,2.33,5.74,2.77,8.32l1.38,8.11,1.06-.16c.12,0,.19.42.06.46l-1.02.31c1.15,6.84,2.45,13.59,4.98,20.06l1.05-.5c.11-.05.3.37.19.43l-1.02.58c1.45,3.44,3.36,6.74,6.36,8.98,3.63,2.71,8.44,2.93,12.29.52,3.68-2.31,5.94-6.03,7.54-10.08l-.95-.59c-.08-.05-.03-.34.05-.38.37-.18.66.42,1.14.35,2.37-6.34,3.49-12.94,4.7-19.59l-1.01-.35.23-.42.89.15c.54-3.28,1.06-6.4,1.83-9.61.6-2.54,1.48-5.1,3.06-7.27l-.77-.44c-.09-.05-.03-.34.06-.41.24-.19.78.54,1.22.35,1.57-1.75,3.89-2.28,6.05-1.49l.82-.99c.16-.03.42.26.34.37l-.67.89c2.88,1.66,4.12,5.74,4.5,8.89.32.03.68.02.91-.02.1-.02.24.18.24.29-.02.36-.83.08-1.02.49.29,3.08.31,6.14.13,9.25l-.5,9.04-.25,5.28.93.05c.06.06.24.35.16.39-.55.32-.85-.11-1.1.3l-.09,3.43.11,4.52c.07,3.04.5,5.96,1.18,8.92l.96-.24c.07-.02.2.14.23.22.02.06-.06.23-.12.25l-.98.31c1.17,4.55,2.91,8.45,6.21,11.79,1.78,1.8,4.4,3.59,6.93,3.93.67.09,1.16-.24,1.41-.83.97-2.3.91-5.4.2-7.76h.01,0ZM202.52,118.32l-1.44-.16v-.58l1.49.17c0,.11-.02.4-.05.56h0ZM200.79,107.27c.45-.08.9.06,1.23.36.25.23.49.74.38,1.16-.2.75-.82,1.14-1.45,1.08-.64-.06-1.17-.56-1.2-1.21-.04-.62.35-1.27,1.04-1.39ZM198.77,117.28l1.43.17-.07.57-1.47-.17c.03-.18.08-.44.12-.57h0ZM196.77,155.24c-.42-.51-.63-1.28-1.17-1.72-.64-.52-1.17-1.01-1.3-1.89-.15-1.05-.03-2.17.48-3.19,1.81,1.73,2.07,4.26,1.99,6.8ZM197.4,136.07h-1.5l-.03-.54,1.57-.03-.04.58h0ZM196.27,117.55l.08-.52,1.52.11-.13.6-1.46-.18h0ZM199.82,136.1l-1.55-.06.02-.59,1.55.06-.02.59ZM199.07,127.8c-.72,0-1.3-.58-1.3-1.3s.58-1.3,1.3-1.3,1.3.58,1.3,1.3-.58,1.3-1.3,1.3ZM200.72,136.06v-.55h1.58v.55h-1.58ZM203.46,148.44c.43.97.57,2.02.49,2.98-.08.94-.57,1.51-1.32,2.03-.61.43-.74,1.27-1.25,1.87,0-2.28.09-5.28,2.08-6.89h0ZM204.28,100.44l-1.06-1.31c.12-.12.31-.29.44-.37l1.02,1.27c-.05.12-.23.28-.39.41h-.01ZM205.98,102.56l-1.04-1.29.39-.46,1.08,1.42-.43.33h0ZM207.65,104.68l-1.06-1.34.45-.36,1.06,1.34-.45.36ZM213.1,102.93c-.41.1-.85,0-1.16-.26-.24-.2-.48-.65-.41-1.02.12-.67.61-1.08,1.18-1.12.6-.05,1.1.39,1.26.95.17.59-.15,1.27-.87,1.44h0ZM212.9,97.59c-.69,0-1.25-.56-1.25-1.25s.56-1.25,1.25-1.25,1.25.56,1.25,1.25-.56,1.25-1.25,1.25ZM215.73,100.49c-.68,0-1.24-.55-1.24-1.24s.55-1.24,1.24-1.24,1.24.55,1.24,1.24-.55,1.24-1.24,1.24ZM218.41,103.3c-.66,0-1.2-.54-1.2-1.2s.54-1.2,1.2-1.2,1.2.54,1.2,1.2-.54,1.2-1.2,1.2ZM218.73,97.94c-.68,0-1.22-.55-1.22-1.22s.55-1.22,1.22-1.22,1.22.55,1.22,1.22-.55,1.22-1.22,1.22ZM220.96,107.46l-.3-.51,1.51-.88.3.51-1.51.88ZM223.24,106.17l-.29-.54,1.45-.93.29.55-1.44.91h0ZM234.01,132.58c0,.66-.53,1.19-1.19,1.19s-1.19-.53-1.19-1.19.53-1.19,1.19-1.19,1.19.53,1.19,1.19ZM233.32,128.94c0,.66-.54,1.2-1.2,1.2s-1.2-.54-1.2-1.2.54-1.2,1.2-1.2,1.2.54,1.2,1.2ZM231.88,123.05l.11.68-1.53.27-.2-.57c.59-.1,1.08-.21,1.62-.38ZM229.53,124.19l-1.45.33c-.14.03-.25-.44-.17-.55l1.45-.34c.07.13.14.37.17.56ZM228.82,115.02c0,.74-.6,1.34-1.34,1.34s-1.34-.6-1.34-1.34.6-1.34,1.34-1.34,1.34.6,1.34,1.34ZM226.61,103.42l.31.52-1.44.86-.31-.52,1.44-.85h0ZM225.35,124.52l1.56-.35.29.56-1.68.33-.16-.54h0ZM226.58,129.53c0-.67.54-1.21,1.21-1.21s1.21.54,1.21,1.21-.54,1.21-1.21,1.21-1.21-.54-1.21-1.21ZM227.31,133.08c0-.66.53-1.19,1.19-1.19s1.19.53,1.19,1.19-.53,1.19-1.19,1.19-1.19-.53-1.19-1.19ZM229.24,137.9c-.66,0-1.19-.53-1.19-1.19s.53-1.19,1.19-1.19,1.19.53,1.19,1.19-.53,1.19-1.19,1.19ZM230.5,145.14l-.13-.59,1.53-.83c.12.2.28.51.29.56l-1.69.86h0ZM233.05,143.79l-.29-.55,1.54-.82.29.55-1.54.82ZM233.57,137.39c-.66,0-1.2-.54-1.2-1.2s.54-1.2,1.2-1.2,1.2.54,1.2,1.2-.54,1.2-1.2,1.2ZM235.49,142.47l-.4-.48,1.55-.82c.13.06.28.35.28.53l-1.43.77h0ZM241.8,150.68c-.74,0-1.33-.6-1.33-1.33s.6-1.33,1.33-1.33,1.33.6,1.33,1.33-.6,1.33-1.33,1.33ZM255.52,113.85c.45-.7,1.35-.81,1.94-.35.67.52.66,1.44.13,1.99-.59.62-1.58.47-2.1-.26-.31-.43-.23-.97.03-1.38h0ZM254.34,123.31l1.39.32-.18.58-1.41-.36c0-.14.09-.48.19-.55h0ZM252.04,122.73l1.56.36-.3.54-1.48-.33.22-.57ZM251.78,127.15c.66,0,1.2.54,1.2,1.2s-.54,1.2-1.2,1.2-1.2-.54-1.2-1.2.54-1.2,1.2-1.2ZM250.95,130.71c.65,0,1.19.53,1.19,1.19s-.53,1.19-1.19,1.19-1.19-.53-1.19-1.19.53-1.19,1.19-1.19ZM248.31,142.02l-1.47-.88.32-.54,1.47.88-.32.54ZM250.49,143.22l-1.38-.79.3-.55c.53.34,1.01.59,1.55.83l-.47.5h0ZM250.02,136.75c-.66,0-1.2-.54-1.2-1.2s.54-1.2,1.2-1.2,1.2.54,1.2,1.2-.54,1.2-1.2,1.2ZM252.78,144.45l-1.33-.73c-.02-.14.12-.42.25-.52l1.35.72c0,.15-.15.41-.27.52h0ZM254.19,138.29c-.66,0-1.2-.54-1.2-1.2s.54-1.2,1.2-1.2,1.2.54,1.2,1.2-.54,1.2-1.2,1.2ZM255.03,134.67c-.66,0-1.2-.54-1.2-1.2s.54-1.2,1.2-1.2,1.2.54,1.2,1.2-.54,1.2-1.2,1.2h0ZM255.94,130.97c-.66,0-1.2-.54-1.2-1.2s.54-1.2,1.2-1.2,1.2.54,1.2,1.2-.54,1.2-1.2,1.2h0ZM257.85,124.83l-1.45-.42.15-.57,1.45.44s-.15.55-.15.55ZM258.27,104.48l-1.34-.73c.06-.16.25-.52.29-.56l1.35.79c-.04.12-.22.43-.3.5h0ZM260.65,105.71l-1.5-.78.29-.55,1.5.78-.29.55ZM262.81,106.82l-1.34-.68.26-.55,1.05.59c.12.07.33.19.32.29-.01.11-.19.32-.28.36h-.01ZM263.66,100.41c-.72,0-1.31-.59-1.31-1.31s.59-1.31,1.31-1.31,1.31.59,1.31,1.31-.59,1.31-1.31,1.31ZM267.96,103.42c-.68,0-1.23-.55-1.23-1.23s.55-1.23,1.23-1.23,1.23.55,1.23,1.23-.55,1.23-1.23,1.23ZM268.25,97.38c-.71,0-1.29-.58-1.29-1.29s.58-1.28,1.29-1.28,1.28.58,1.28,1.28-.58,1.29-1.28,1.29ZM285.42,154.33l.17.56-1.58.48-.17-.56,1.58-.48ZM282.51,139.89v-.61h1.58v.62h-1.58ZM283.11,155.64l-1.56.48-.1-.59,1.49-.45.17.55h0ZM284.18,113.9l.12.53-1.43.28c-.05-.09-.13-.36-.17-.58l1.49-.23h0ZM283.61,121.78c.66,0,1.2.54,1.2,1.2s-.54,1.2-1.2,1.2-1.2-.54-1.2-1.2.54-1.2,1.2-1.2ZM283.54,125.71c.67,0,1.21.54,1.21,1.21s-.54,1.21-1.21,1.21-1.21-.54-1.21-1.21.54-1.21,1.21-1.21ZM283.46,129.7c.67,0,1.21.54,1.21,1.21s-.54,1.21-1.21,1.21-1.21-.54-1.21-1.21.54-1.21,1.21-1.21ZM280.9,148.71c-.73,0-1.33-.6-1.33-1.33s.6-1.33,1.33-1.33,1.33.6,1.33,1.33-.6,1.33-1.33,1.33ZM280.11,139.92l.05-.63h1.49v.58l-1.54.04h0ZM281.93,114.77l-1.41.29-.08-.62,1.41-.21c.05.1.11.43.08.54ZM279.92,106.15c.73,0,1.33.6,1.33,1.33s-.59,1.33-1.33,1.33-1.33-.6-1.33-1.33.59-1.33,1.33-1.33ZM279.63,114.57l.05.56-1.46.22-.07-.58,1.48-.2ZM279.34,121.76c.67,0,1.21.54,1.21,1.21s-.54,1.21-1.21,1.21-1.21-.54-1.21-1.21.54-1.21,1.21-1.21ZM279.25,125.69c.67,0,1.21.54,1.21,1.21s-.54,1.21-1.21,1.21-1.21-.54-1.21-1.21.54-1.21,1.21-1.21ZM279.14,129.67c.67,0,1.22.55,1.22,1.22s-.54,1.22-1.22,1.22-1.22-.54-1.22-1.22.55-1.22,1.22-1.22ZM273.1,104.43l-.34-.43,1.07-1.28.5.32-1.23,1.39ZM274.95,102.33l-.44-.41,1.13-1.28.43.39-1.12,1.3ZM276.77,100.23l-.58-.26.73-.79c.19-.21.33-.43.53-.73l.4.51-1.08,1.27h0ZM277.69,139.9l.03-.6h1.5l.07.6h-1.6ZM278.9,156.3l1.62-.48.16.56-1.62.48-.17-.56h.01ZM281.58,162.21c-.67,0-1.2-.54-1.2-1.2s.54-1.2,1.2-1.2,1.2.54,1.2,1.2-.54,1.2-1.2,1.2ZM284.25,168c-.66,0-1.2-.54-1.2-1.2s.54-1.2,1.2-1.2,1.2.54,1.2,1.2-.54,1.2-1.2,1.2ZM284.96,164.28c-.66,0-1.19-.53-1.19-1.19s.53-1.19,1.19-1.19,1.19.53,1.19,1.19-.53,1.19-1.19,1.19ZM285.95,160.61c-.66,0-1.19-.53-1.19-1.19s.53-1.19,1.19-1.19,1.19.53,1.19,1.19-.53,1.19-1.19,1.19ZM288.48,166.33c-.66,0-1.2-.54-1.2-1.2s.54-1.2,1.2-1.2,1.2.54,1.2,1.2-.54,1.2-1.2,1.2Z"/>
        <path class="st1" d="M203.46,148.44c-1.99,1.6-2.07,4.61-2.08,6.89.51-.6.64-1.44,1.25-1.87.75-.53,1.24-1.09,1.32-2.03.08-.96-.06-2.02-.49-2.98h0ZM202.15,152.92c-.04-.7.09-1.3.42-1.78.44.63.22,1.36-.42,1.78Z"/>
        <path class="st1" d="M194.77,148.44c-.51,1.03-.63,2.15-.48,3.19.13.88.66,1.37,1.3,1.89.54.44.75,1.21,1.17,1.72.08-2.54-.18-5.07-1.99-6.8ZM195.65,150.93c.23.59.37,1.14.42,1.92-.8-.3-.88-1.21-.42-1.92Z"/>
        <circle class="st1" cx="227.48" cy="115.02" r="1.34"/>
        <path class="st1" d="M202.41,108.78c-.2.75-.82,1.14-1.45,1.08-.64-.06-1.17-.56-1.2-1.21-.04-.62.35-1.27,1.04-1.39.45-.08.9.06,1.23.36.25.23.49.74.38,1.16Z"/>
        <path class="st1" d="M200.37,126.5c0,.72-.58,1.3-1.3,1.3s-1.3-.58-1.3-1.3.58-1.3,1.3-1.3,1.3.58,1.3,1.3Z"/>
        <path class="st1" d="M229,129.53c0,.67-.54,1.21-1.21,1.21s-1.21-.54-1.21-1.21.54-1.21,1.21-1.21,1.21.54,1.21,1.21Z"/>
        <path class="st1" d="M233.32,128.94c0,.66-.54,1.2-1.2,1.2s-1.2-.54-1.2-1.2.54-1.2,1.2-1.2,1.2.54,1.2,1.2Z"/>
        <path class="st1" d="M234.77,136.19c0,.66-.54,1.2-1.2,1.2s-1.2-.54-1.2-1.2.54-1.2,1.2-1.2,1.2.54,1.2,1.2Z"/>
        <path class="st1" d="M230.43,136.71c0,.66-.53,1.19-1.19,1.19s-1.19-.53-1.19-1.19.53-1.19,1.19-1.19,1.19.53,1.19,1.19Z"/>
        <path class="st1" d="M234.01,132.58c0,.66-.53,1.19-1.19,1.19s-1.19-.53-1.19-1.19.53-1.19,1.19-1.19,1.19.53,1.19,1.19Z"/>
        <circle class="st1" cx="228.5" cy="133.08" r="1.19"/>
        <polygon class="st1" points="224.68 105.26 223.24 106.17 222.95 105.63 224.39 104.71 224.68 105.26"/>
        <path class="st1" d="M231.99,123.73l-1.53.27-.2-.57c.59-.1,1.08-.21,1.62-.38l.11.68Z"/>
        <path class="st1" d="M204.67,100.03c-.05.12-.23.28-.39.41l-1.06-1.31c.12-.12.31-.29.44-.37l1.02,1.27h-.01Z"/>
        <polygon class="st1" points="227.2 124.73 225.51 125.06 225.35 124.52 226.91 124.17 227.2 124.73"/>
        <polygon class="st1" points="206.41 102.23 205.98 102.56 204.94 101.27 205.33 100.81 206.41 102.23"/>
        <path class="st1" d="M229.53,124.19l-1.45.33c-.14.03-.25-.44-.17-.55l1.45-.34c.07.13.14.37.17.56Z"/>
        <rect class="st10" x="225.21" y="103.83" width="1.67" height=".61" transform="translate(-21.47 130.17) rotate(-30.74)"/>
        <rect class="st4" x="220.68" y="106.49" width="1.75" height=".59" transform="translate(-23.65 125.85) rotate(-30.18)"/>
        <rect class="st3" x="207.05" y="102.97" width=".57" height="1.71" transform="translate(-19.67 151.12) rotate(-38.37)"/>
        <path class="st1" d="M202.52,118.32l-1.44-.16v-.58l1.49.17c0,.11-.02.4-.05.56h0Z"/>
        <path class="st1" d="M200.19,117.46l-.07.57-1.47-.17c.03-.18.08-.44.12-.57l1.43.17h0Z"/>
        <polygon class="st1" points="197.87 117.14 197.74 117.73 196.27 117.55 196.35 117.02 197.87 117.14"/>
        <polygon class="st1" points="197.44 135.5 197.4 136.07 195.9 136.06 195.87 135.53 197.44 135.5"/>
        <rect class="st2" x="198.75" y="135" width=".59" height="1.55" transform="translate(55.19 329.06) rotate(-87.64)"/>
        <rect class="st6" x="200.72" y="135.51" width="1.58" height=".55" transform="translate(-.28 .42) rotate(-.12)"/>
        <path class="st1" d="M202.15,152.92c-.04-.7.09-1.3.42-1.78.44.63.22,1.36-.42,1.78Z"/>
        <path class="st1" d="M196.07,152.84c-.8-.3-.88-1.21-.42-1.92.23.59.37,1.14.42,1.92Z"/>
        <g>
          <path class="st1" d="M214.15,96.34c0,.69-.56,1.25-1.25,1.25s-1.25-.56-1.25-1.25.56-1.25,1.25-1.25,1.25.56,1.25,1.25Z"/>
          <circle class="st1" cx="215.73" cy="99.25" r="1.24"/>
          <path class="st1" d="M213.1,102.93c-.41.1-.85,0-1.16-.26-.24-.2-.48-.65-.41-1.02.12-.67.61-1.08,1.18-1.12.6-.05,1.1.39,1.26.95.17.59-.15,1.27-.87,1.44h0Z"/>
          <path class="st1" d="M219.95,96.72c0,.68-.55,1.22-1.22,1.22s-1.22-.55-1.22-1.22.55-1.22,1.22-1.22,1.22.55,1.22,1.22Z"/>
          <circle class="st1" cx="218.41" cy="102.1" r="1.2"/>
        </g>
      </g>
      <g>
        <path class="st1" d="M282.23,147.38c0,.73-.6,1.33-1.33,1.33s-1.33-.6-1.33-1.33.6-1.33,1.33-1.33,1.33.6,1.33,1.33Z"/>
        <circle class="st1" cx="241.8" cy="149.35" r="1.33"/>
        <path class="st1" d="M281.25,107.47c0,.73-.59,1.33-1.33,1.33s-1.33-.6-1.33-1.33.59-1.33,1.33-1.33,1.33.6,1.33,1.33Z"/>
        <path class="st1" d="M257.59,115.49c-.59.62-1.58.47-2.1-.26-.31-.43-.23-.97.03-1.38.45-.7,1.35-.81,1.94-.35.67.52.66,1.44.13,1.99Z"/>
        <circle class="st1" cx="263.66" cy="99.1" r="1.31"/>
        <path class="st1" d="M269.54,96.1c0,.71-.58,1.29-1.28,1.29s-1.29-.58-1.29-1.29.58-1.28,1.29-1.28,1.28.58,1.28,1.28Z"/>
        <path class="st1" d="M269.19,102.2c0,.68-.55,1.23-1.23,1.23s-1.23-.55-1.23-1.23.55-1.23,1.23-1.23,1.23.55,1.23,1.23Z"/>
        <circle class="st1" cx="279.14" cy="130.89" r="1.22"/>
        <circle class="st1" cx="279.25" cy="126.9" r="1.21"/>
        <path class="st1" d="M284.75,126.92c0,.67-.54,1.21-1.21,1.21s-1.21-.54-1.21-1.21.54-1.21,1.21-1.21,1.21.54,1.21,1.21Z"/>
        <circle class="st1" cx="279.34" cy="122.97" r="1.21"/>
        <path class="st1" d="M284.66,130.9c0,.67-.54,1.21-1.21,1.21s-1.21-.54-1.21-1.21.54-1.21,1.21-1.21,1.21.54,1.21,1.21Z"/>
        <path class="st1" d="M255.39,137.09c0,.66-.54,1.2-1.2,1.2s-1.2-.54-1.2-1.2.54-1.2,1.2-1.2,1.2.54,1.2,1.2Z"/>
        <circle class="st1" cx="251.78" cy="128.36" r="1.2"/>
        <path class="st1" d="M284.82,122.99c0,.66-.54,1.2-1.2,1.2s-1.2-.54-1.2-1.2.54-1.2,1.2-1.2,1.2.54,1.2,1.2Z"/>
        <path class="st1" d="M251.22,135.55c0,.66-.54,1.2-1.2,1.2s-1.2-.54-1.2-1.2.54-1.2,1.2-1.2,1.2.54,1.2,1.2Z"/>
        <circle class="st1" cx="281.58" cy="161.01" r="1.2"/>
        <path class="st1" d="M289.68,165.13c0,.66-.54,1.2-1.2,1.2s-1.2-.54-1.2-1.2.54-1.2,1.2-1.2,1.2.54,1.2,1.2Z"/>
        <path class="st1" d="M257.14,129.77c0,.66-.54,1.2-1.2,1.2s-1.2-.54-1.2-1.2.54-1.2,1.2-1.2,1.2.54,1.2,1.2Z"/>
        <path class="st1" d="M256.23,133.47c0,.66-.54,1.2-1.2,1.2s-1.2-.54-1.2-1.2.54-1.2,1.2-1.2,1.2.54,1.2,1.2Z"/>
        <path class="st1" d="M285.45,166.8c0,.66-.54,1.2-1.2,1.2s-1.2-.54-1.2-1.2.54-1.2,1.2-1.2,1.2.54,1.2,1.2Z"/>
        <circle class="st1" cx="250.95" cy="131.9" r="1.19"/>
        <circle class="st1" cx="284.96" cy="163.09" r="1.19"/>
        <path class="st1" d="M287.14,159.42c0,.66-.53,1.19-1.19,1.19s-1.19-.53-1.19-1.19.53-1.19,1.19-1.19,1.19.53,1.19,1.19Z"/>
        <path class="st1" d="M232.19,144.28l-1.69.86-.13-.59,1.53-.83c.12.2.28.51.29.56h0Z"/>
        <polygon class="st1" points="276.07 101.02 274.95 102.33 274.51 101.91 275.64 100.63 276.07 101.02"/>
        <path class="st1" d="M236.92,141.7l-1.43.77-.4-.48,1.55-.82c.13.06.28.35.28.53h0Z"/>
        <rect class="st8" x="232.8" y="142.77" width="1.75" height=".63" transform="translate(-39.84 126.69) rotate(-28.05)"/>
        <path class="st1" d="M277.85,98.96l-1.08,1.27-.58-.26.73-.79c.19-.21.33-.43.53-.73l.4.51h0Z"/>
        <path class="st1" d="M250.96,142.72l-.47.5-1.38-.79.3-.55c.53.34,1.01.59,1.55.83h0Z"/>
        <rect class="st9" x="259.71" y="104.2" width=".62" height="1.69" transform="translate(46.43 286.77) rotate(-62.39)"/>
        <polygon class="st1" points="279.29 139.9 277.69 139.9 277.72 139.3 279.22 139.29 279.29 139.9"/>
        <rect class="st7" x="247.41" y="140.45" width=".63" height="1.71" transform="translate(-.59 281.57) rotate(-59.16)"/>
        <polygon class="st1" points="281.65 139.87 280.11 139.92 280.16 139.29 281.65 139.29 281.65 139.87"/>
        <rect class="st12" x="283.02" y="138.8" width=".62" height="1.58" transform="translate(142.21 422.16) rotate(-89.69)"/>
        <polygon class="st1" points="274.33 103.04 273.1 104.43 272.76 104 273.83 102.71 274.33 103.04"/>
        <path class="st1" d="M258.57,103.98c-.04.12-.22.43-.3.5l-1.34-.73c.06-.16.25-.52.29-.56l1.35.79h0Z"/>
        <path class="st1" d="M253.05,143.93c0,.15-.15.41-.27.52l-1.33-.73c-.02-.14.12-.42.25-.52l1.35.72h0Z"/>
        <polygon class="st1" points="283.11 155.64 281.56 156.12 281.45 155.53 282.94 155.08 283.11 155.64"/>
        <polygon class="st1" points="280.69 156.37 279.07 156.85 278.9 156.3 280.53 155.82 280.69 156.37"/>
        <rect class="st11" x="283.87" y="154.57" width="1.65" height=".58" transform="translate(-32.57 88.73) rotate(-16.77)"/>
        <polygon class="st1" points="253.6 123.1 253.3 123.63 251.82 123.3 252.04 122.73 253.6 123.1"/>
        <path class="st1" d="M263.1,106.46c-.01.11-.19.32-.28.36l-1.34-.68.26-.55,1.05.59c.12.07.33.19.32.29h-.01Z"/>
        <path class="st1" d="M255.73,123.63l-.18.58-1.41-.36c0-.14.09-.48.19-.55l1.39.32h0Z"/>
        <polygon class="st1" points="279.68 115.13 278.22 115.34 278.15 114.77 279.63 114.57 279.68 115.13"/>
        <path class="st1" d="M284.29,114.43l-1.43.28c-.05-.09-.13-.36-.17-.58l1.49-.23.12.53h0Z"/>
        <polygon class="st1" points="258 124.28 257.85 124.83 256.4 124.41 256.56 123.85 258 124.28"/>
        <path class="st1" d="M281.93,114.77l-1.41.29-.08-.62,1.41-.21c.05.1.11.43.08.54Z"/>
      </g>
    </g>
  </g>
</svg>